<svg width="55.99999999999999" height="55.99999999999999" xmlns="http://www.w3.org/2000/svg">

 <g>
  <title>background</title>
  <rect fill="none" id="canvas_background" height="402" width="582" y="-1" x="-1"/>
 </g>
 <g>
  <title>Layer 1</title>
  <g id="svg_1">
   <path id="svg_2" fill="#E9E9E0" d="m36.985001,0l-29.022001,0c-0.808,0 -1.463,0.655 -1.463,1.926l0,53.074c0,0.345001 0.655,1 1.463,1l40.073999,0c0.808002,0 1.463001,-0.654999 1.463001,-1l0,-42.022c0,-0.696 -0.092999,-0.92 -0.257,-1.085l-11.636002,-11.636c-0.164997,-0.164 -0.389,-0.257 -0.621998,-0.257z"/>
   <polygon id="svg_3" fill="#D9D7CA" points="37.5,0.151 37.5,12 49.349,12  "/>
   <path id="svg_4" fill="#F29C1F" d="m48.036999,56l-40.073999,0c-0.808,0 -1.463,-0.654999 -1.463,-1.463001l0,-15.536999l43,0l0,15.536999c0,0.808002 -0.654999,1.463001 -1.463001,1.463001z"/>
   <g id="svg_5">
    <text transform="matrix(0.522697, 0, 0, 0.355381, 45.1286, 30.3957)" xml:space="preserve" text-anchor="start" font-family="Helvetica, Arial, sans-serif" font-size="24" id="svg_30" y="41.861383" x="24.435634" fill-opacity="null" stroke-opacity="null" stroke-width="0" stroke="null" fill="#ffffff">F I L E</text>
   </g>
   <path id="svg_9" fill="#F29C1F" d="m15.5,24c-0.256,0 -0.512,-0.098 -0.707,-0.292999c-0.391,-0.391001 -0.391,-1.023001 0,-1.414001l5.999999,-6c0.391001,-0.390999 1.023001,-0.390999 1.414001,0s0.390999,1.023001 0,1.414001l-6,6c-0.195002,0.195 -0.451001,0.292999 -0.707001,0.292999z"/>
   <path id="svg_10" fill="#F29C1F" d="m21.5,30c-0.256001,0 -0.511999,-0.098 -0.707001,-0.292999l-5.999999,-6c-0.391,-0.391001 -0.391,-1.023001 0,-1.414001s1.023,-0.390999 1.414001,0l6,6c0.390999,0.391001 0.390999,1.023001 0,1.414001c-0.195002,0.195 -0.451,0.292999 -0.707001,0.292999z"/>
   <path id="svg_11" fill="#F29C1F" d="m33.5,30c-0.256001,0 -0.512001,-0.098 -0.707001,-0.292999c-0.390999,-0.391001 -0.390999,-1.023001 0,-1.414001l6,-6c0.390999,-0.390999 1.023003,-0.390999 1.414001,0s0.390999,1.023001 0,1.414001l-6,6c-0.195,0.195 -0.451,0.292999 -0.707001,0.292999z"/>
   <path id="svg_12" fill="#F29C1F" d="m39.5,24c-0.256001,0 -0.512001,-0.098 -0.707001,-0.292999l-6,-6c-0.390999,-0.391001 -0.390999,-1.023001 0,-1.414001s1.023003,-0.390999 1.414001,0l6,6c0.390999,0.391001 0.390999,1.023001 0,1.414001c-0.195,0.195 -0.451,0.292999 -0.707001,0.292999z"/>
   <path id="svg_13" fill="#F29C1F" d="m24.5,32c-0.110001,0 -0.223,-0.018999 -0.333,-0.058001c-0.521,-0.184 -0.794001,-0.754999 -0.610001,-1.275999l6,-17c0.185001,-0.521 0.753,-0.795 1.276001,-0.610001c0.521,0.184 0.794001,0.755 0.610001,1.276l-6,17.000001c-0.145,0.411999 -0.531,0.667999 -0.943001,0.667999z"/>
  </g>
  <g id="svg_14"/>
  <g id="svg_15"/>
  <g id="svg_16"/>
  <g id="svg_17"/>
  <g id="svg_18"/>
  <g id="svg_19"/>
  <g id="svg_20"/>
  <g id="svg_21"/>
  <g id="svg_22"/>
  <g id="svg_23"/>
  <g id="svg_24"/>
  <g id="svg_25"/>
  <g id="svg_26"/>
  <g id="svg_27"/>
  <g id="svg_28"/>
  <text transform="matrix(1.048, 0, 0, 0.312171, 10.2931, 38.9522)" xml:space="preserve" text-anchor="start" font-family="Helvetica, Arial, sans-serif" font-size="24" id="svg_31" y="51.366333" x="12.752467" fill-opacity="null" stroke-opacity="null" stroke-width="0" stroke="null" fill="#ffffff"/>
  <text transform="matrix(0.508519, 0, 0, 0.436925, 8.94399, 30.1514)" xml:space="preserve" text-anchor="start" font-family="Helvetica, Arial, sans-serif" font-size="24" id="svg_32" y="48.036259" x="10.057986" fill-opacity="null" stroke-opacity="null" stroke-width="0" stroke="null" fill="#ffffff">FILE</text>
 </g>
</svg>